<svg width="44" height="45" viewBox="0 0 44 45" fill="none" xmlns="http://www.w3.org/2000/svg">
<path d="M24 19C24.529 24.935 26.138 35.387 29 41C29.235 41.462 28.991 42.065 28.62 42.334C27.17 43.383 25.202 44 23 44H21C18.798 44 16.83 43.383 15.38 42.334C15.009 42.065 14.765 41.462 15 41C17.862 35.387 19.47 24.935 20 19" stroke="#F05000" stroke-width="2" stroke-miterlimit="10"/>
<path d="M11.9999 22.022C7.11788 17.14 7.11788 9.22499 11.9999 4.34399" stroke="#F05000" stroke-width="2" stroke-miterlimit="10"/>
<path d="M6.112 25.684C-0.704 18.868 -0.704 7.817 6.112 1" stroke="#F05000" stroke-width="2" stroke-miterlimit="10"/>
<path d="M32 22.022C36.882 17.14 36.882 9.22499 32 4.34399" stroke="#F05000" stroke-width="2" stroke-miterlimit="10"/>
<path d="M37.8879 25.684C44.7039 18.868 44.7039 7.817 37.8879 1" stroke="#F05000" stroke-width="2" stroke-miterlimit="10"/>
<path d="M21.999 19C25.3127 19 27.999 16.3137 27.999 13C27.999 9.68629 25.3127 7 21.999 7C18.6853 7 15.999 9.68629 15.999 13C15.999 16.3137 18.6853 19 21.999 19Z" stroke="#F05000" stroke-width="2" stroke-miterlimit="10"/>
</svg>
