<svg width="48" height="44" viewBox="0 0 48 44" fill="none" xmlns="http://www.w3.org/2000/svg">
<path d="M44 24.8569V20.8569H40" stroke="#F05000" stroke-width="2" stroke-miterlimit="10" stroke-linecap="round" stroke-linejoin="round"/>
<path d="M26 34.8569L28 36.8569L44 20.8569" stroke="#F05000" stroke-width="2" stroke-miterlimit="10" stroke-linecap="round" stroke-linejoin="round"/>
<path d="M14 22.8569L21 29.8569" stroke="#F05000" stroke-width="2" stroke-miterlimit="10" stroke-linecap="round" stroke-linejoin="round"/>
<path d="M35 24.8569V20.8569H31" stroke="#F05000" stroke-width="2" stroke-miterlimit="10" stroke-linecap="round" stroke-linejoin="round"/>
<path d="M5 22.8569L19 36.8569L35 20.8569" stroke="#F05000" stroke-width="2" stroke-miterlimit="10" stroke-linecap="round" stroke-linejoin="round"/>
<path d="M39 31.8569H43L47 42.8569H1L5 31.8569H9" stroke="#F05000" stroke-width="2" stroke-miterlimit="10" stroke-linecap="round" stroke-linejoin="round"/>
<path d="M23 1C22.135 5.322 17 8.80099 17 13.77C17 17.132 19.686 19.857 23 19.857C26.313 19.857 29 17.132 29 13.77C29 8.80099 23.865 5.322 23 1Z" stroke="#F05000" stroke-width="2" stroke-miterlimit="10" stroke-linejoin="round"/>
</svg>
