<svg width="42" height="42" viewBox="0 0 42 42" fill="none" xmlns="http://www.w3.org/2000/svg">
<path d="M13.231 37.5217C17.5907 37.5147 23.6139 37.5451 27.9832 37.5382" stroke="#F05000" stroke-width="2" stroke-miterlimit="10" stroke-linejoin="round"/>
<path d="M35.7933 37.5217H41C41 37.5217 41 33.7765 41 32.3043C41 30.2721 38.6136 27.3043 30.5866 27.0869C27.2162 23.8826 24.1876 21.8695 20.9031 21.8695C17.6186 21.8695 15.7407 21.8695 14.0988 21.8695C10.4828 21.8695 8.40707 24.4782 4.71554 27.0869C3.0737 27.0869 2.98693 27.0869 1.94993 27.0869C1.08562 29.3382 0.757597 33.1243 1.18975 34.8573C1.6219 36.5886 2.73874 37.5217 4.55327 37.5217C4.6791 37.5217 5.03749 37.5217 5.42105 37.5217" stroke="#F05000" stroke-width="2" stroke-miterlimit="10" stroke-linejoin="round"/>
<path d="M27.9834 28.1331L26.2478 28.8261H12.3633L9.76001 26.2174" stroke="#F05000" stroke-width="2" stroke-miterlimit="10" stroke-linejoin="round"/>
<path d="M31.8884 41C34.0451 41 35.7934 39.2481 35.7934 37.087C35.7934 34.9259 34.0451 33.174 31.8884 33.174C29.7317 33.174 27.9834 34.9259 27.9834 37.087C27.9834 39.2481 29.7317 41 31.8884 41Z" stroke="#F05000" stroke-width="2" stroke-miterlimit="10" stroke-linejoin="round"/>
<path d="M9.32615 41C11.4828 41 13.2312 39.2481 13.2312 37.087C13.2312 34.9259 11.4828 33.174 9.32615 33.174C7.16947 33.174 5.42114 34.9259 5.42114 37.087C5.42114 39.2481 7.16947 41 9.32615 41Z" stroke="#F05000" stroke-width="2" stroke-miterlimit="10" stroke-linejoin="round"/>
<path d="M21.0413 19.2608V14.0435" stroke="#F05000" stroke-width="2" stroke-miterlimit="10" stroke-linejoin="round"/>
<path d="M24.5123 4.47826L21.0412 1L17.5701 4.47826" stroke="#F05000" stroke-width="2" stroke-miterlimit="10" stroke-linejoin="round"/>
<path d="M28.8511 10.5652H24.5122V14.0434" stroke="#F05000" stroke-width="2" stroke-miterlimit="10" stroke-linejoin="round"/>
<path d="M13.231 10.5652H17.5699V14.0434" stroke="#F05000" stroke-width="2" stroke-miterlimit="10" stroke-linejoin="round"/>
<path d="M31.4546 14.0434L34.9257 10.5652L31.4546 7.08691" stroke="#F05000" stroke-width="2" stroke-miterlimit="10" stroke-linejoin="round"/>
<path d="M10.6279 14.0434L7.15674 10.5652L10.6279 7.08691" stroke="#F05000" stroke-width="2" stroke-miterlimit="10" stroke-linejoin="round"/>
<path d="M21.0413 1.86951V12.3043" stroke="#F05000" stroke-width="2" stroke-miterlimit="10" stroke-linejoin="round"/>
<path d="M8.02441 10.5652H11.4955" stroke="#F05000" stroke-width="2" stroke-miterlimit="10" stroke-linejoin="round"/>
<path d="M34.0578 10.5652H30.5867" stroke="#F05000" stroke-width="2" stroke-miterlimit="10" stroke-linejoin="round"/>
<path d="M17.5701 15.7826V18.3913" stroke="#F05000" stroke-width="2" stroke-miterlimit="10" stroke-linejoin="round"/>
<path d="M24.5122 15.7826V18.3913" stroke="#F05000" stroke-width="2" stroke-miterlimit="10" stroke-linejoin="round"/>
</svg>
