<svg width="46" height="42" viewBox="0 0 46 42" fill="none" xmlns="http://www.w3.org/2000/svg">
<path d="M11.534 25.846C10.738 25.946 9.886 26 9 26C4.582 26 1 24.657 1 23" stroke="#F05000" stroke-width="2" stroke-miterlimit="10" stroke-linecap="round" stroke-linejoin="round"/>
<path d="M20.125 16.982C20.413 16.994 20.704 17 21 17C25.418 17 29 15.657 29 14" stroke="#F05000" stroke-width="2" stroke-miterlimit="10" stroke-linecap="round" stroke-linejoin="round"/>
<path d="M6.68597 30.873C3.39597 30.5 1 29.355 1 28V23V18" stroke="#F05000" stroke-width="2" stroke-miterlimit="10" stroke-linecap="round" stroke-linejoin="round"/>
<path d="M21 7C25.4183 7 29 5.65685 29 4C29 2.34315 25.4183 1 21 1C16.5817 1 13 2.34315 13 4C13 5.65685 16.5817 7 21 7Z" stroke="#F05000" stroke-width="2" stroke-miterlimit="10" stroke-linecap="round" stroke-linejoin="round"/>
<path d="M29 9C29 10.657 25.418 12 21 12C16.582 12 13 10.657 13 9" stroke="#F05000" stroke-width="2" stroke-miterlimit="10" stroke-linecap="round" stroke-linejoin="round"/>
<path d="M9 21C13.4183 21 17 19.6569 17 18C17 16.3431 13.4183 15 9 15C4.58172 15 1 16.3431 1 18C1 19.6569 4.58172 21 9 21Z" stroke="#F05000" stroke-width="2" stroke-miterlimit="10" stroke-linecap="round" stroke-linejoin="round"/>
<path d="M13 4V12.167" stroke="#F05000" stroke-width="2" stroke-miterlimit="10" stroke-linecap="round" stroke-linejoin="round"/>
<path d="M17 18V22.688" stroke="#F05000" stroke-width="2" stroke-miterlimit="10" stroke-linecap="round" stroke-linejoin="round"/>
<path d="M29 18.563V14V4" stroke="#F05000" stroke-width="2" stroke-miterlimit="10" stroke-linecap="round" stroke-linejoin="round"/>
<path d="M10 30V36.625L21 41V34.333L10 30Z" stroke="#F05000" stroke-width="2" stroke-miterlimit="10" stroke-linecap="round" stroke-linejoin="round"/>
<path d="M30 37.25L21 41" stroke="#F05000" stroke-width="2" stroke-miterlimit="10" stroke-linecap="round" stroke-linejoin="round"/>
<path d="M37.356 27.5L44.9999 24.314V31L37.9999 33.917" stroke="#F05000" stroke-width="2" stroke-miterlimit="10" stroke-linecap="round" stroke-linejoin="round"/>
<path d="M21 34.314L29.235 30.884" stroke="#F05000" stroke-width="2" stroke-miterlimit="10" stroke-linecap="round" stroke-linejoin="round"/>
<path d="M26.3101 23.207L33.9611 20.02L45.0001 24.314" stroke="#F05000" stroke-width="2" stroke-miterlimit="10" stroke-linecap="round" stroke-linejoin="round"/>
<path d="M10 30L18.303 26.542" stroke="#F05000" stroke-width="2" stroke-miterlimit="10" stroke-linecap="round" stroke-linejoin="round"/>
<path d="M25.2748 22.8049L37.9998 27.7499V34.6669L29.9998 38.2499V31.1879L17.2788 26.1349L25.2748 22.8049Z" stroke="#F05000" stroke-width="2" stroke-miterlimit="10" stroke-linecap="round" stroke-linejoin="round"/>
</svg>
