<svg width="41" height="42" viewBox="0 0 41 42" fill="none" xmlns="http://www.w3.org/2000/svg">
<path d="M16.63 34.2923C16.8312 34.3538 17.0342 34.4116 17.2382 34.4648L17.9665 39.5328H23.7935L24.5219 34.4648C25.8548 34.1189 27.1122 33.5896 28.2685 32.9015L32.3392 35.9657L36.4599 31.8143L33.419 27.7124C34.1018 26.5463 34.6263 25.2802 34.9704 23.9371L39.9998 23.2031V17.3315L34.9704 16.5975C34.6272 15.2544 34.1018 13.9874 33.419 12.8222L36.4599 8.72032L32.3392 4.56888L28.2685 7.63315C27.1113 6.94507 25.8548 6.41661 24.5219 6.06981L23.7935 1H17.9665L17.2382 6.06796C15.9053 6.41384 14.6479 6.9423 13.4916 7.6313L9.42092 4.56703L5.30104 8.71848L8.34202 12.8204C7.65917 13.9865 7.13476 15.2525 6.7906 16.5957L1.76025 17.3305V23.2022L6.78966 23.9362C6.90164 24.372 7.03185 24.7995 7.18026 25.2179" stroke="#F05000" stroke-width="2" stroke-miterlimit="10" stroke-linecap="round" stroke-linejoin="round"/>
<path d="M6.22991 40.1942L18.0678 28.2655C18.2809 28.0508 18.5932 27.9885 18.8809 28.0811C21.5868 28.9545 24.6677 28.3123 26.8155 26.1499C28.7293 24.2214 29.4431 21.5443 28.9615 19.0562C28.8395 18.4268 28.0802 18.1773 27.6304 18.6305L24.0459 22.2425C23.74 22.5507 23.2438 22.5507 22.9379 22.2425L19.6138 18.8938C19.3079 18.5855 19.3079 18.0855 19.6138 17.7773L23.1992 14.1644C23.649 13.7111 23.4013 12.9451 22.7767 12.8231C20.3066 12.3386 17.6508 13.0579 15.737 14.9855C13.5901 17.1488 12.9528 20.2544 13.8204 22.9801C13.9124 23.2691 13.8505 23.5847 13.6375 23.7994L1.79962 35.728C0.733461 36.8033 0.733461 38.5455 1.79962 39.6208L2.36866 40.1942C3.43299 41.2685 5.16285 41.2685 6.22991 40.1942Z" stroke="#F05000" stroke-width="2" stroke-miterlimit="10" stroke-linejoin="round"/>
</svg>
