<svg width="40" height="42" viewBox="0 0 40 42" fill="none" xmlns="http://www.w3.org/2000/svg">
<path d="M13.8086 1.30676L16.9936 8.8315C17.0669 9.00564 17.2313 9.12443 17.4187 9.13693L25.2283 9.69775C25.664 9.72901 25.8541 10.2702 25.5359 10.572L19.6484 16.1562C19.5194 16.2786 19.4637 16.4607 19.5025 16.6349L21.1578 24.1641C21.2506 24.5883 20.807 24.9268 20.4287 24.7187L13.5868 20.959C13.4374 20.8768 13.2571 20.8768 13.1078 20.959L6.2658 24.7187C5.88755 24.9259 5.4439 24.5883 5.53669 24.1641L7.19194 16.6349C7.23083 16.4607 7.17428 16.2786 7.04614 16.1562L1.15863 10.572C0.840476 10.2702 1.03045 9.72901 1.46614 9.69775L9.27585 9.13693C9.4632 9.12353 9.62666 9.00564 9.70089 8.8315L12.8859 1.30676C13.06 0.897747 13.6353 0.897747 13.8086 1.30676Z" stroke="#F05000" stroke-width="2" stroke-miterlimit="10" stroke-linecap="round" stroke-linejoin="round"/>
<path d="M25.4368 15.9206L27.5993 15.9009C27.7045 15.9 27.8 15.8402 27.8468 15.7455L30.4671 10.4802C30.5776 10.2578 30.8984 10.2774 30.9815 10.5123L32.939 16.0634C32.9743 16.1635 33.0618 16.2349 33.1652 16.2492L38.7567 17.0038C38.9988 17.0359 39.0863 17.3441 38.8981 17.5021L34.4254 21.2475C34.3494 21.3109 34.3123 21.411 34.3273 21.5092L35.1855 26.9942C35.2226 27.2345 34.9645 27.4068 34.7604 27.2782L30.0138 24.2713C29.9334 24.2204 29.8326 24.2142 29.7469 24.2544L24.6697 26.6468C24.4514 26.7495 24.2155 26.5459 24.2826 26.3119L25.8036 20.9752C25.831 20.8796 25.8062 20.776 25.7382 20.7028L24.3746 19.2391" stroke="#F05000" stroke-width="2" stroke-miterlimit="10" stroke-linecap="round" stroke-linejoin="round"/>
<path d="M19.5848 28.0854L20.0329 29.8769C20.0532 29.9581 20.1168 30.0206 20.1972 30.0394L25.6942 31.3236C25.8815 31.3673 25.9284 31.6165 25.7684 31.7255L20.9705 35.0234C20.906 35.0681 20.8698 35.1431 20.8742 35.2217L21.2153 40.7621C21.2277 40.9532 21.0112 41.0702 20.8609 40.9532L16.4219 37.5115C16.3627 37.465 16.284 37.4534 16.2133 37.4784L10.9417 39.3734C10.7632 39.4377 10.5927 39.26 10.6625 39.0814L12.6739 33.9161C12.7022 33.8429 12.6907 33.7598 12.6421 33.6973L9.08233 29.0669C8.96391 28.9133 9.08326 28.6909 9.27592 28.7079L14.8965 29.1946C14.9787 29.2017 15.0591 29.1615 15.1024 29.091L16.4943 26.8503" stroke="#F05000" stroke-width="2" stroke-miterlimit="10" stroke-linecap="round" stroke-linejoin="round"/>
</svg>
